#!OML:ASF H:\Pregnant\Project 1\Capture day 1\Session 1\femalepreg.ASF
:FULLY-SPECIFIED
:DEGREES
562
root 6.81056 15.6405 24.9664 83.9961 -87.5903 -70.1789
lowerback -20.3276 -0.0199106 -1.66936
upperback -6.56316 -0.183632 0.93358
thorax 4.25773 -0.262179 1.89005
lowerneck -18.3001 8.84486 9.43396
upperneck 29.1136 10.5928 -3.75771
head 13.6526 5.02647 -1.24128
rclavicle -3.55328e-015 7.95139e-016
rhumerus -52.0988 10.5998 -87.2738
rradius 76.6659
rwrist -30.351
rhand -24.4454 -28.3672
rfingers 7.12502
rthumb 2.0472 -58.3371
lclavicle -3.55328e-015 7.95139e-016
lhumerus -52.5006 -9.19745 90.4576
lradius 62.3832
lwrist 41.1901
lhand -20.1123 -10.5915
lfingers 7.12502
lthumb 6.23144 19.2968
rfemur -19.8523 19.3865 16.1977
rtibia 26.4216
rfoot -15.5653 -17.595
rtoes -14.3799
lfemur 0 0 0
ltibia 0
lfoot 0 0
ltoes 0
563
root 6.81758 15.6411 24.9668 84.9229 -87.5941 -71.1266
lowerback -20.2778 0.0218178 -1.59654
upperback -6.53554 -0.141067 0.93197
thorax 4.26014 -0.240561 1.85674
lowerneck -18.3377 8.81835 9.43899
upperneck 29.0396 10.5834 -3.86348
head 13.6356 5.00945 -1.28415
rclavicle -3.65267e-015 -1.51076e-014
rhumerus -51.5281 10.4653 -87.1814
rradius 74.2655
rwrist -30.514
rhand -23.9791 -28.6057
rfingers 7.12502
rthumb 2.49755 -58.5708
lclavicle -3.65267e-015 -1.51076e-014
lhumerus -52.0274 -9.70101 90.7713
lradius 60.5903
lwrist 42.1703
lhand -20.1814 -9.83471
lfingers 7.12502
lthumb 6.16466 20.0556
rfemur -19.8625 19.3758 16.2
rtibia 26.4113
rfoot -15.5512 -17.5374
rtoes -14.3537
lfemur 0 0 0
ltibia 0
lfoot 0 0
ltoes 0
564
root 6.82398 15.642 24.9656 86.16 -87.5923 -72.3744
lowerback -20.2508 0.0507921 -1.55968
upperback -6.50353 -0.109579 0.957607
thorax 4.27944 -0.224359 1.87049
lowerneck -18.3747 8.79963 9.43914
upperneck 28.9569 10.5883 -3.97353
head 13.6159 4.99777 -1.32517
rclavicle -4.22417e-016 -3.77691e-015
rhumerus -50.9218 10.3428 -87.0592
rradius 71.8739
rwrist -30.4624
rhand -23.4624 -28.8163
rfingers 7.12502
rthumb 2.99651 -58.775
lclavicle -4.22417e-016 -3.77691e-015
lhumerus -51.5426 -10.2022 91.1104
lradius 58.7904
lwrist 43.2211
lhand -20.2626 -9.08351
lfingers 7.12502
lthumb 6.08633 20.8091
rfemur -19.8787 19.4257 16.2075
rtibia 26.3949
rfoot -15.5279 -17.5233
rtoes -14.2959
lfemur 0 0 0
ltibia 0
lfoot 0 0
ltoes 0
565
root 6.83003 15.6431 24.9632 87.5796 -87.5858 -73.7944
lowerback -20.2357 0.0762567 -1.5366
upperback -6.47355 -0.0806608 0.990027
thorax 4.30275 -0.209532 1.89877
lowerneck -18.4108 8.78523 9.44952
upperneck 28.8703 10.5952 -4.08104
head 13.5952 4.98856 -1.36641
rclavicle -1.09083e-014 1.33186e-014
rhumerus -50.296 10.2171 -86.9322
rradius 69.4935
rwrist -30.2154
rhand -22.9121 -28.9882
rfingers 7.12502
rthumb 3.52798 -58.9387
lclavicle -1.09083e-014 1.33186e-014
lhumerus -51.0539 -10.721 91.4579
lradius 56.9856
lwrist 44.3424
lhand -20.3568 -8.3601
lfingers 7.12502
lthumb 5.99532 21.5351
rfemur -19.9032 19.5246 16.2167
rtibia 26.3757
rfoot -15.4926 -17.552
rtoes -14.2506
lfemur 0 0 0
ltibia 0
lfoot 0 0
ltoes 0
566
root 6.83584 15.6443 24.9595 89.2619 -87.5877 -75.4735
lowerback -20.2168 0.101004 -1.52795
upperback -6.45069 -0.0499968 1.01517
thorax 4.31621 -0.193914 1.92787
lowerneck -18.4355 8.77668 9.46334
upperneck 28.7807 10.6016 -4.16237
head 13.5693 4.98337 -1.39841
rclavicle -5.1684e-015 3.97569e-016
rhumerus -49.659 10.0755 -86.8199
rradius 67.1133
rwrist -29.8004
rhand -22.3295 -29.0987
rfingers 7.12502
rthumb 4.09057 -59.0392
lclavicle -5.1684e-015 3.97569e-016
lhumerus -50.5919 -11.2985 91.8158
lradius 55.2069
lwrist 45.5727
lhand -20.5121 -7.69746
lfingers 7.12502
lthumb 5.84545 22.2019
rfemur -19.9344 19.6568 16.217
rtibia 26.3587
rfoot -15.4497 -17.6039
rtoes -14.2261
lfemur 0 0 0
ltibia 0
lfoot 0 0
ltoes 0
567
root 6.84159 15.6454 24.9556 91.0079 -87.5889 -77.2197
lowerback -20.1833 0.129339 -1.5229
upperback -6.43554 -0.0144601 1.04058
thorax 4.31361 -0.175809 1.96038
lowerneck -18.4501 8.76388 9.44747
upperneck 28.6882 10.598 -4.20028
head 13.5342 4.97684 -1.41099
rclavicle 3.3048e-015 1.31198e-014
rhumerus -49.0157 9.91803 -86.7003
rradius 64.7266
rwrist -29.2666
rhand -21.7403 -29.1379
rfingers 7.12502
rthumb 4.65954 -59.0667
lclavicle 3.3048e-015 1.31198e-014
lhumerus -50.1552 -11.9209 92.2006
lradius 53.455
lwrist 46.8879
lhand -20.7348 -7.11917
lfingers 7.12502
lthumb 5.63037 22.786
rfemur -19.9636 19.8131 16.215
rtibia 26.3456
rfoot -15.4076 -17.6748
rtoes -14.1815
lfemur 0 0 0
ltibia 0
lfoot 0 0
ltoes 0
568
root 6.84789 15.6465 24.9526 92.5412 -87.594 -78.7546
lowerback -20.1413 0.159802 -1.50716
upperback -6.42145 0.0223418 1.05698
thorax 4.30542 -0.157051 1.97736
lowerneck -18.4568 8.75025 9.42011
upperneck 28.5884 10.5899 -4.21569
head 13.4917 4.97057 -1.41408
rclavicle -6.95746e-016 5.56597e-015
rhumerus -48.3491 9.74625 -86.5824
rradius 62.3233
rwrist -28.6684
rhand -21.1703 -29.0961
rfingers 7.12502
rthumb 5.20993 -59.0121
lclavicle -6.95746e-016 5.56597e-015
lhumerus -49.7217 -12.5579 92.5851
lradius 51.7244
lwrist 48.2389
lhand -21.0356 -6.65386
lfingers 7.12502
lthumb 5.34001 23.2589
rfemur -19.9967 19.9313 16.2055
rtibia 26.3392
rfoot -15.3659 -17.7229
rtoes -14.1807
lfemur 0 0 0
ltibia 0
lfoot 0 0
ltoes 0
569
root 6.85548 15.6474 24.9522 93.3343 -87.6011 -79.5487
lowerback -20.0826 0.189378 -1.45711
upperback -6.41053 0.052273 1.05766
thorax 4.28583 -0.141655 1.95626
lowerneck -18.4527 8.73636 9.38297
upperneck 28.4782 10.5764 -4.20382
head 13.4396 4.96502 -1.40647
rclavicle -2.88238e-015 1.97791e-014
rhumerus -47.6551 9.55579 -86.4688
rradius 59.8903
rwrist -28.0346
rhand -20.5997 -28.9617
rfingers 7.12502
rthumb 5.76083 -58.8634
lclavicle -2.88238e-015 1.97791e-014
lhumerus -49.3011 -13.2163 92.9655
lradius 50.0385
lwrist 49.6132
lhand -21.4289 -6.31855
lfingers 7.12502
lthumb 4.96026 23.6034
rfemur -20.0343 19.9898 16.1829
rtibia 26.3362
rfoot -15.3323 -17.7426
rtoes -14.1806
lfemur 0 0 0
ltibia 0
lfoot 0 0
ltoes 0
